<?xml version="1.0" encoding="UTF-8" standalone="no" ?>
<!DOCTYPE svg PUBLIC "-//W3C//DTD SVG 1.1//EN" "http://www.w3.org/Graphics/SVG/1.1/DTD/svg11.dtd">
<svg xmlns="http://www.w3.org/2000/svg" xmlns:xlink="http://www.w3.org/1999/xlink" version="1.1" width="400" height="400" viewBox="0 0 400 400" xml:space="preserve">
<desc>Created with Fabric.js 3.6.2</desc>
<defs>
</defs>
<g transform="matrix(0.39 0 0 0.39 200 200)" id="Layer_1_1_"  >
<path style="stroke: none; stroke-width: 1; stroke-dasharray: none; stroke-linecap: butt; stroke-dashoffset: 0; stroke-linejoin: miter; stroke-miterlimit: 4; fill: rgb(0,0,0); fill-rule: nonzero; opacity: 1;"  transform=" translate(-256, -256)" d="M 441.7 392.1 L 281 484.9 c -15.5 8.9 -34.5 8.9 -50 0 L 70.3 392.1 c -15.5 -8.9 -25 -25.4 -25 -43.3 V 163.2 c 0 -17.9 9.5 -34.4 25 -43.3 L 231 27.1 c 15.5 -8.9 34.5 -8.9 50 0 l 160.7 92.8 c 15.5 8.9 25 25.4 25 43.3 v 185.6 C 466.7 366.6 457.2 383.2 441.7 392.1 z" stroke-linecap="round" />
</g>
<g transform="matrix(0.39 0 0 0.39 200.16 233.69)" id="Layer_2_1_"  >
<path style="stroke: none; stroke-width: 1; stroke-dasharray: none; stroke-linecap: butt; stroke-dashoffset: 0; stroke-linejoin: miter; stroke-miterlimit: 4; fill: rgb(255,255,255); fill-rule: nonzero; opacity: 1;"  transform=" translate(-256.41, -342.25)" d="M 290.1 310.6 c 1.4 1.2 0.8 2.8 0.8 4.2 c 0 19.3 0 38.6 0 57.9 c 0 0.4 0.1 0.8 0.1 1.2 c -23 0 -46.2 0 -69.2 0 c 0.3 -11.4 0.3 -22.8 0 -34.1 c 2.1 0.1 1.1 1.7 1.1 2.5 c 0.1 9.1 0.1 18.3 0 27.4 c -0.1 2.6 0.8 3.3 3.3 3.3 c 20.1 -0.1 40.2 -0.1 60.3 0 c 2.9 0 3.3 -1 3.3 -3.5 c -0.1 -16.5 -0.1 -33 -0.1 -49.6 C 290 316.8 290.1 313.7 290.1 310.6 z" stroke-linecap="round" />
</g>
<g transform="matrix(0.39 0 0 0.39 195.51 196.22)" id="Layer_2_1_"  >
<path style="stroke: none; stroke-width: 1; stroke-dasharray: none; stroke-linecap: butt; stroke-dashoffset: 0; stroke-linejoin: miter; stroke-miterlimit: 4; fill: rgb(255,255,255); fill-rule: nonzero; opacity: 1;"  transform=" translate(-244.51, -246.32)" d="M 290.1 310.6 c -0.1 3.1 -0.1 6.3 -0.1 9.4 c 0 16.5 -0.1 33 0.1 49.6 c 0 2.5 -0.5 3.6 -3.3 3.5 c -20.1 -0.1 -40.2 -0.1 -60.3 0 c -2.5 0 -3.4 -0.7 -3.3 -3.3 c 0.1 -9.1 0.1 -18.3 0 -27.4 c 0 -0.8 1 -2.5 -1.1 -2.5 c -0.5 0 -0.8 0.1 -1.3 0.1 c -0.8 -0.4 -1.6 -0.3 -2.2 0.6 c -8.1 0.8 -16.3 1.5 -24.3 -0.5 c -14.2 -3.6 -24.4 -12 -30.7 -25.4 c -4 -8.7 -9.4 -16.8 -15.6 -24.3 c -2 -2.4 -5.1 -3.3 -7.2 -5.6 c -0.8 -0.9 -2.1 -1.6 -1.7 -2.9 c 0.4 -1.5 2 -1.4 3.3 -1.6 c 13.1 -1.1 22.3 5.1 28.8 15.8 c 5.9 9.8 13.7 17 24.9 20 c 8 2.1 15.9 1.6 23.8 -0.8 c 1.8 -0.6 2.8 -1.4 3 -3.6 c 0.6 -8.1 2.3 -15.9 7.9 -22.8 c -2.2 -0.4 -3.9 -0.8 -5.6 -1 c -13.8 -2.1 -26.7 -6.9 -37.9 -15.4 c -12.5 -9.5 -20.2 -22.3 -22.7 -37.9 c -2.1 -13.6 -1.3 -27.4 0.5 -41 c 1.4 -10.5 4.3 -20.5 11.9 -28.3 c 2.7 -2.7 2.9 -5 1.7 -8.4 c -4 -11.6 -2.9 -23.3 0.7 -34.9 c 0.7 -2.2 1.6 -2.8 4 -2.2 c 8.8 2.2 15.6 7.3 21.7 13.6 c 3 3 5.6 6.4 8 9.8 c 0.7 1 1.2 1.5 2.5 0.5 c 4.7 -3.7 10.4 -4.9 16.1 -5.7 c 16.5 -2.4 33 -2.4 49.4 -0.1 c 5.5 0.8 11 1.8 15.6 5.2 c 2.2 1.6 3 0.7 4.2 -1 c 4.4 -6.4 9.7 -11.9 16 -16.4 c 4 -2.9 8.4 -4.8 13.3 -6 c 2.1 -0.5 2.9 0.1 3.6 2 c 4.4 12.5 5.1 25.1 0.1 37.6 c -0.6 1.6 -1 2.7 0.5 4 c 8 7.6 11.8 17.2 13.4 27.9 c 1.9 12.9 3 25.9 1.5 39 c -2.5 22.1 -13.7 38.1 -33.2 48.6 c -0.7 -0.1 -1.3 0.1 -1.6 0.8 c -0.5 0.3 -1 0.5 -1.5 0.7 c -1.7 0.1 -3.1 0.8 -4.3 1.9 c -0.5 0.2 -1.1 0.3 -1.6 0.5 c -0.8 -0.2 -1.3 0.1 -1.6 0.8 c -0.3 0.1 -0.7 0.2 -1 0.3 c -2.6 0.4 -5.2 0.7 -7.4 2.3 c -0.3 0.1 -0.7 0.1 -1 0.2 c -1.9 -0.1 -3.8 0.1 -5.4 1.2 c -1.4 0.2 -2.8 0.4 -4.2 0.6 c -1.1 0.1 -2.4 -0.1 -3.3 0.3 c -1 0.5 -0.6 1.1 0.3 1.4 l 0.1 0.1 c 0.1 0.9 0.5 1.6 1.4 1.8 c 0.5 1 1 2.1 1.6 3.1 c 0.1 1.4 0.4 2.7 1.6 3.6 c 0.1 0.6 0.3 1.1 0.4 1.7 c 0.3 1.8 0.3 3.7 1.4 5.3 c 0.1 0.4 0.1 0.8 0.2 1.1 c -0.4 0.8 -0.2 1.5 0.4 2.2 C 290.1 309.2 290.1 309.9 290.1 310.6 z" stroke-linecap="round" />
</g>
<g transform="matrix(0.39 0 0 0.39 217.38 211.32)" id="Layer_2_1_"  >
<path style="stroke: none; stroke-width: 1; stroke-dasharray: none; stroke-linecap: butt; stroke-dashoffset: 0; stroke-linejoin: miter; stroke-miterlimit: 4; fill: rgb(255,255,255); fill-rule: nonzero; opacity: 1;"  transform=" translate(-300.5, -284.97)" d="M 296.8 286.1 c 2.2 -1.6 4.8 -1.9 7.4 -2.3 C 301.8 284.8 299.6 286.4 296.8 286.1 z" stroke-linecap="round" />
</g>
<g transform="matrix(0.39 0 0 0.39 214.45 212.12)" id="Layer_2_1_"  >
<path style="stroke: none; stroke-width: 1; stroke-dasharray: none; stroke-linecap: butt; stroke-dashoffset: 0; stroke-linejoin: miter; stroke-miterlimit: 4; fill: rgb(255,255,255); fill-rule: nonzero; opacity: 1;"  transform=" translate(-293, -287.03)" d="M 290.3 287.6 c 1.6 -1.2 3.5 -1.2 5.4 -1.2 C 294.2 287.6 292.3 287.8 290.3 287.6 z" stroke-linecap="round" />
</g>
<g transform="matrix(0.39 0 0 0.39 212.81 218.26)" id="Layer_2_1_"  >
<path style="stroke: none; stroke-width: 1; stroke-dasharray: none; stroke-linecap: butt; stroke-dashoffset: 0; stroke-linejoin: miter; stroke-miterlimit: 4; fill: rgb(255,255,255); fill-rule: nonzero; opacity: 1;"  transform=" translate(-288.79, -302.75)" d="M 289.4 305.4 c -1.1 -1.6 -1.1 -3.5 -1.4 -5.3 C 289.4 301.6 289.9 303.4 289.4 305.4 z" stroke-linecap="round" />
</g>
<g transform="matrix(0.39 0 0 0.39 221.35 209.83)" id="Layer_2_1_"  >
<path style="stroke: none; stroke-width: 1; stroke-dasharray: none; stroke-linecap: butt; stroke-dashoffset: 0; stroke-linejoin: miter; stroke-miterlimit: 4; fill: rgb(255,255,255); fill-rule: nonzero; opacity: 1;"  transform=" translate(-310.65, -281.17)" d="M 308.5 282.1 c 1.2 -1.1 2.6 -1.9 4.3 -1.9 C 311.7 281.5 310.3 282.3 308.5 282.1 z" stroke-linecap="round" />
</g>
<g transform="matrix(0.39 0 0 0.39 210.98 212.91)" id="Layer_2_1_"  >
<path style="stroke: none; stroke-width: 1; stroke-dasharray: none; stroke-linecap: butt; stroke-dashoffset: 0; stroke-linejoin: miter; stroke-miterlimit: 4; fill: rgb(255,255,255); fill-rule: nonzero; opacity: 1;"  transform=" translate(-284.12, -289.04)" d="M 283.1 289.9 c -1 -0.3 -1.4 -0.9 -0.3 -1.4 c 1 -0.4 2.2 -0.3 3.3 -0.3 C 285.4 289.3 283.5 288.3 283.1 289.9 z" stroke-linecap="round" />
</g>
<g transform="matrix(0.39 0 0 0.39 212.03 215.86)" id="Layer_2_1_"  >
<path style="stroke: none; stroke-width: 1; stroke-dasharray: none; stroke-linecap: butt; stroke-dashoffset: 0; stroke-linejoin: miter; stroke-miterlimit: 4; fill: rgb(255,255,255); fill-rule: nonzero; opacity: 1;"  transform=" translate(-286.8, -296.6)" d="M 287.6 298.4 c -1.2 -0.9 -1.4 -2.2 -1.6 -3.6 C 287.4 295.7 287.5 297 287.6 298.4 z" stroke-linecap="round" />
</g>
<g transform="matrix(0.39 0 0 0.39 213.24 220.16)" id="Layer_2_1_"  >
<path style="stroke: none; stroke-width: 1; stroke-dasharray: none; stroke-linecap: butt; stroke-dashoffset: 0; stroke-linejoin: miter; stroke-miterlimit: 4; fill: rgb(255,255,255); fill-rule: nonzero; opacity: 1;"  transform=" translate(-289.89, -307.6)" d="M 290 308.7 c -0.6 -0.7 -0.7 -1.3 -0.4 -2.2 C 290.4 307.1 290.6 307.8 290 308.7 z" stroke-linecap="round" />
</g>
<g transform="matrix(0.39 0 0 0.39 185.78 232.89)" id="Layer_2_1_"  >
<path style="stroke: none; stroke-width: 1; stroke-dasharray: none; stroke-linecap: butt; stroke-dashoffset: 0; stroke-linejoin: miter; stroke-miterlimit: 4; fill: rgb(255,255,255); fill-rule: nonzero; opacity: 1;"  transform=" translate(-219.6, -340.19)" d="M 218.5 340.5 c 0.5 -0.9 1.2 -0.9 2.2 -0.6 C 220.1 340.5 219.4 340.9 218.5 340.5 z" stroke-linecap="round" />
</g>
<g transform="matrix(0.39 0 0 0.39 210.9 213.59)" id="Layer_2_1_"  >
<path style="stroke: none; stroke-width: 1; stroke-dasharray: none; stroke-linecap: butt; stroke-dashoffset: 0; stroke-linejoin: miter; stroke-miterlimit: 4; fill: rgb(255,255,255); fill-rule: nonzero; opacity: 1;"  transform=" translate(-283.9, -290.8)" d="M 284.6 291.7 c -0.9 -0.3 -1.3 -0.9 -1.4 -1.8 C 284.2 290.1 284.6 290.8 284.6 291.7 z" stroke-linecap="round" />
</g>
<g transform="matrix(0.39 0 0 0.39 223.13 209.06)" id="Layer_2_1_"  >
<path style="stroke: none; stroke-width: 1; stroke-dasharray: none; stroke-linecap: butt; stroke-dashoffset: 0; stroke-linejoin: miter; stroke-miterlimit: 4; fill: rgb(255,255,255); fill-rule: nonzero; opacity: 1;"  transform=" translate(-315.2, -279.19)" d="M 314.4 279.5 c 0.3 -0.7 0.9 -0.9 1.6 -0.8 C 315.8 279.5 315.3 280 314.4 279.5 z" stroke-linecap="round" />
</g>
<g transform="matrix(0.39 0 0 0.39 219.57 210.6)" id="Layer_2_1_"  >
<path style="stroke: none; stroke-width: 1; stroke-dasharray: none; stroke-linecap: butt; stroke-dashoffset: 0; stroke-linejoin: miter; stroke-miterlimit: 4; fill: rgb(255,255,255); fill-rule: nonzero; opacity: 1;"  transform=" translate(-306.1, -283.15)" d="M 305.3 283.5 c 0.3 -0.7 0.8 -1 1.6 -0.8 C 306.6 283.5 306.2 283.9 305.3 283.5 z" stroke-linecap="round" />
</g>
</svg>